<?xml version="1.0" encoding="UTF-8" standalone="no"?>
<!-- Created with Inkscape (http://www.inkscape.org/) -->

<svg
   width="74.537048mm"
   height="74.536537mm"
   viewBox="0 0 74.537048 74.536537"
   version="1.1"
   id="svg1"
   sodipodi:docname="icon.svg"
   inkscape:version="1.3 (0e150ed6c4, 2023-07-21)"
   xmlns:inkscape="http://www.inkscape.org/namespaces/inkscape"
   xmlns:sodipodi="http://sodipodi.sourceforge.net/DTD/sodipodi-0.dtd"
   xmlns="http://www.w3.org/2000/svg"
   xmlns:svg="http://www.w3.org/2000/svg">
  <sodipodi:namedview
     id="namedview1"
     pagecolor="#ffffff"
     bordercolor="#000000"
     borderopacity="0.25"
     inkscape:showpageshadow="2"
     inkscape:pageopacity="0.0"
     inkscape:pagecheckerboard="0"
     inkscape:deskcolor="#d1d1d1"
     inkscape:document-units="mm"
     inkscape:zoom="3.7165498"
     inkscape:cx="140.85645"
     inkscape:cy="140.85645"
     inkscape:window-width="2400"
     inkscape:window-height="1261"
     inkscape:window-x="-9"
     inkscape:window-y="-9"
     inkscape:window-maximized="1"
     inkscape:current-layer="layer1" />
  <defs
     id="defs1" />
  <g
     inkscape:label="Layer 1"
     inkscape:groupmode="layer"
     id="layer1"
     transform="translate(-98.235346,-109.32045)">
    <path
       id="path1"
       style="fill:#00ccff;stroke-width:0.79375;stroke-linejoin:bevel"
       d="m 135.50387,109.32046 a 37.268341,37.268341 0 0 0 -37.268523,37.26853 37.268341,37.268341 0 0 0 10.344073,25.64649 c 2.12426,-0.43342 3.89682,-1.38051 5.30975,-2.85357 1.55256,-1.65166 3.46868,-5.0379 5.74797,-10.15804 l 22.1263,-49.36236 a 37.268341,37.268341 0 0 0 -6.25957,-0.54105 z m 11.54969,1.8464 21.78678,49.54374 c 0.20765,0.4687 0.39432,0.83837 0.59531,1.27589 a 37.268341,37.268341 0 0 0 3.33675,-15.3975 37.268341,37.268341 0 0 0 -25.71884,-35.42213 z m -9.38031,17.08836 -10.30635,23.14019 h 20.31556 z m -12.04061,26.80663 -2.82412,6.54069 c -0.92492,2.18019 -1.38751,3.98028 -1.38751,5.4007 0,1.88289 0.75992,3.27064 2.27945,4.16254 0.8919,0.52853 3.08826,0.92481 6.58978,1.18907 v 1.83348 h -19.75797 a 37.268341,37.268341 0 0 0 24.9716,9.66866 37.268341,37.268341 0 0 0 24.97161,-9.66866 h -13.68496 v -1.83348 h 1.33791 c 2.60962,0 4.44286,-0.36364 5.49992,-1.09037 0.72673,-0.52853 1.08985,-1.28793 1.08985,-2.27893 0,-0.5946 -0.0989,-1.20585 -0.29713,-1.83348 -0.0661,-0.2973 -0.56129,-1.53586 -1.48622,-3.71605 l -3.56774,-8.37417 z" />
  </g>
</svg>
